<svg xmlns="http://www.w3.org/2000/svg" width="16" height="19" viewBox="0 0 16 19" fill="none">
  <path d="M3.34261 6.43403C1.90281 7.33385 1.18301 7.78375 0.936115 8.35985C0.720514 8.86285 0.720514 9.43235 0.936115 9.93545C1.18301 10.5114 1.90281 10.9613 3.34261 11.8612L10.1048 16.0876C11.7028 17.0863 12.5017 17.5857 13.1611 17.5326C13.7358 17.4864 14.2626 17.1945 14.6064 16.7316C15.0008 16.2006 15.0008 15.2584 15.0008 13.374V4.92122C15.0008 3.03684 15.0008 2.09466 14.6064 1.56363C14.2626 1.10075 13.7358 0.808758 13.1611 0.762548C12.5017 0.709548 11.7028 1.20891 10.1048 2.20763L3.34261 6.43403Z" fill="#C8A04F" stroke="#C8A04F" stroke-linejoin="round"/>
</svg>