<svg xmlns="http://www.w3.org/2000/svg" width="48" height="41" viewBox="0 0 48 41" fill="none">
  <path d="M19.1951 0.647584V8.67254C16.6582 8.81254 14.7372 9.27553 13.4342 10.0625C12.1302 10.8495 11.2142 12.1255 10.6852 13.8915C10.1572 15.6575 9.8922 18.1835 9.8922 21.4705H19.1951V40.6154H0.114258V22.4145C0.114258 14.8965 1.72625 9.38953 4.95023 5.89255C8.17521 2.39557 12.9232 0.647584 19.1951 0.647584ZM48.001 0.647584V8.67254C45.464 8.81254 43.544 9.25853 42.24 10.0105C40.936 10.7615 39.993 12.0385 39.412 13.8395C38.831 15.6395 38.54 18.1835 38.54 21.4705H48.001V40.6154H28.8151V22.4145C28.8151 14.8965 30.4181 9.38953 33.6241 5.89255C36.831 2.39557 41.623 0.647584 48.001 0.647584Z" fill="#414141"/>
</svg>