<svg xmlns="http://www.w3.org/2000/svg" width="43" height="43" viewBox="0 0 43 43" fill="none">
  <circle opacity="0.44" cx="21.6445" cy="21.4922" r="20.7979" stroke="#686868"/>
  <path d="M27.9615 15.0908C27.1353 14.2584 26.1519 13.5986 25.0685 13.1497C23.9849 12.7008 22.823 12.4719 21.6502 12.4761C20.0824 12.4777 18.5424 12.8911 17.1846 13.675C15.8268 14.459 14.6988 15.5859 13.9136 16.9429C13.1283 18.3 12.7134 19.8395 12.7104 21.4073C12.7074 22.9753 13.1163 24.5163 13.8963 25.8764L12.634 30.5085L17.3675 29.2688C18.6746 29.9959 20.1433 30.3835 21.6389 30.3958C24.0166 30.3959 26.298 29.4568 27.9866 27.7829C29.6752 26.1092 30.6343 23.8361 30.6551 21.4585C30.6472 20.2721 30.4051 19.0989 29.9429 18.0062C29.4808 16.9135 28.8074 15.9228 27.9615 15.0908ZM21.6502 28.8518C20.3177 28.8527 19.0096 28.4945 17.8634 27.8149L17.5929 27.6459L14.7866 28.3897L15.5305 25.651L15.3502 25.3693C14.3913 23.8215 14.0335 21.9758 14.3444 20.1818C14.6553 18.3879 15.6134 16.7703 17.0372 15.6354C18.461 14.5006 20.2515 13.9274 22.0696 14.0243C23.8877 14.1213 25.6072 14.8817 26.9021 16.1615C28.3177 17.5457 29.128 19.4338 29.1562 21.4134C29.1384 23.3924 28.3396 25.2842 26.9339 26.6773C25.5283 28.0703 23.6293 28.8519 21.6502 28.8518ZM25.7188 23.2843C25.4934 23.1716 24.4001 22.6306 24.1973 22.563C23.9944 22.4954 23.8366 22.4503 23.6901 22.6757C23.4697 22.9778 23.2325 23.2675 22.9801 23.5435C22.8561 23.7013 22.7209 23.7126 22.4955 23.5435C21.2103 23.0357 20.1397 22.1002 19.4638 20.895C19.2271 20.5005 19.6892 20.5231 20.1175 19.6778C20.1491 19.6168 20.1656 19.5492 20.1656 19.4806C20.1656 19.412 20.1491 19.3443 20.1175 19.2834C20.1175 19.1706 19.6103 18.0662 19.43 17.6266C19.2497 17.1871 19.0693 17.2547 18.9228 17.2434H18.4833C18.3694 17.2452 18.2572 17.2712 18.1542 17.3198C18.0512 17.3684 17.9597 17.4384 17.886 17.5252C17.6331 17.7711 17.4358 18.0683 17.3075 18.3969C17.1792 18.7254 17.1228 19.0777 17.1421 19.4299C17.2128 20.273 17.5303 21.0766 18.055 21.7403C19.0155 23.1781 20.3317 24.3429 21.8756 25.1213C22.6854 25.594 23.6264 25.7917 24.5579 25.6848C24.8681 25.6233 25.1619 25.4972 25.4201 25.3146C25.6784 25.1321 25.8954 24.8973 26.0569 24.6254C26.2065 24.2936 26.2536 23.9248 26.1921 23.566C26.0907 23.4533 25.9442 23.397 25.7188 23.2843Z" fill="#303230"/>
</svg>