<svg xmlns="http://www.w3.org/2000/svg" width="43" height="44" viewBox="0 0 43 44" fill="none">
  <path opacity="0.44" d="M42.4678 21.8254C42.4678 33.5029 33.149 42.9561 21.6699 42.9561C10.1909 42.9561 0.87207 33.5029 0.87207 21.8254C0.87207 10.148 10.1909 0.694824 21.6699 0.694824C33.149 0.694824 42.4678 10.148 42.4678 21.8254Z" stroke="#686868"/>
  <path d="M29.965 17.6563C29.8688 17.2856 29.676 16.9472 29.4061 16.6754C29.1363 16.4037 28.7992 16.2085 28.4292 16.1097C26.1862 15.8452 23.9284 15.726 21.6699 15.7529C19.4115 15.726 17.1537 15.8452 14.9106 16.1097C14.5407 16.2085 14.2036 16.4037 13.9337 16.6754C13.6639 16.9472 13.4711 17.2856 13.3749 17.6563C13.1292 19.034 13.0097 20.4314 13.018 21.8308C13.0093 23.2375 13.1288 24.642 13.3749 26.027C13.4761 26.3917 13.6711 26.7234 13.9406 26.9891C14.2101 27.2548 14.5446 27.4451 14.9106 27.5411C17.1537 27.8056 19.4115 27.9249 21.6699 27.898C23.9284 27.9249 26.1862 27.8056 28.4292 27.5411C28.7953 27.4451 29.1298 27.2548 29.3992 26.9891C29.6687 26.7234 29.8638 26.3917 29.965 26.027C30.2111 24.642 30.3305 23.2375 30.3218 21.8308C30.3302 20.4314 30.2107 19.034 29.965 17.6563ZM19.8963 24.4156V19.2677L24.4277 21.8308L19.8963 24.4048V24.4156Z" fill="#303230"/>
</svg>